<?xml version="1.0" encoding="utf-8"?>
<!-- Uploaded to: SVG Repo, www.svgrepo.com, Generator: SVG Repo Mixer Tools -->
<svg width="800px" height="800px" viewBox="0 0 1024 1024" class="icon"  version="1.1" xmlns="http://www.w3.org/2000/svg"><path d="M944 84.8H80c-27.2 0-48 20.8-48 48v512c0 27.2 20.8 48 48 48h864c27.2 0 48-20.8 48-48v-512c0-27.2-20.8-48-48-48z" fill="#FFFFFF" /><path d="M96 148.8h832v480H96z" fill="#E8E8E8" /><path d="M257.6 902.4h508.8v36.8H257.6z" fill="#9DE8F7" /><path d="M392 724.8h240v145.6H392z" fill="#FFFFFF" /><path d="M944 52.8H80c-44.8 0-80 35.2-80 80v512c0 44.8 35.2 80 80 80h280v145.6h-134.4v100.8h572.8v-100.8H664v-145.6h280c44.8 0 80-35.2 80-80v-512c0-44.8-35.2-80-80-80z m-177.6 849.6v36.8H257.6v-36.8h508.8z m-374.4-32v-145.6h240v145.6H392z m600-225.6c0 27.2-20.8 48-48 48H80c-27.2 0-48-20.8-48-48v-512c0-27.2 20.8-48 48-48h864c27.2 0 48 20.8 48 48v512z" fill="" /><path d="M620.8 451.2l-97.6-97.6 44.8-44.8-152-25.6 25.6 152 48-48 97.6 97.6z" fill="#FFFFFF" /><path d="M568 355.2l65.6-65.6L376 244.8l44.8 257.6 68.8-68.8 97.6 97.6 78.4-78.4-97.6-97.6z m-126.4 80l-25.6-152 152 25.6-44.8 44.8 97.6 97.6-33.6 33.6-97.6-97.6-48 48z" fill="" /></svg>